<?xml version="1.0" encoding="utf-8"?>
<!-- Svg Vector Icons : http://www.onlinewebfonts.com/icon -->
<!DOCTYPE svg PUBLIC "-//W3C//DTD SVG 1.1//EN" "http://www.w3.org/Graphics/SVG/1.1/DTD/svg11.dtd">
<svg version="1.1" xmlns="http://www.w3.org/2000/svg" xmlns:xlink="http://www.w3.org/1999/xlink" x="0px" y="0px" viewBox="0 0 1000 1000" enable-background="new 0 0 1000 1000" xml:space="preserve">
<metadata> Svg Vector Icons : http://www.onlinewebfonts.com/icon </metadata>
<g><path d="M815.7,507.4c0-117.5-95.6-213.2-213.1-213.2c-117.5,0-213.1,95.6-213.1,213.2c0,117.5,95.6,213.1,213.1,213.1C720.1,720.6,815.7,624.9,815.7,507.4z M458.8,507.4c0-79.3,64.5-143.8,143.8-143.8c79.3,0,143.8,64.5,143.8,143.8c0,79.3-64.5,143.8-143.8,143.8C523.3,651.2,458.8,586.7,458.8,507.4z"/><path d="M782.1,138.8H177.8c-19.1,0-34.7,15.5-34.7,34.7c0,19.1,15.5,34.7,34.7,34.7h604.3c76.4,0,138.6,62.2,138.6,138.6v306.5c0,76.4-62.2,138.6-138.6,138.6H218.3c-76.4,0-138.6-62.2-138.6-138.6V521.7l-0.1-2.8c-0.1-0.8-5.9-83,39.8-132.3c24-25.9,58-38.5,103.8-38.5h62.8c19.1,0,34.7-15.5,34.7-34.7c0-19.1-15.5-34.7-34.7-34.7h-62.8c-65.5,0-117.7,20.6-155.1,61.2c-62.6,68-58.6,168.3-57.7,183v130.3c0,114.6,93.3,207.9,207.9,207.9h563.8c114.7,0,207.9-93.3,207.9-207.9V346.8C990,232.1,896.7,138.8,782.1,138.8z"/></g>
</svg>