<?xml version="1.0" encoding="iso-8859-1"?>
<!-- Generator: Adobe Illustrator 18.0.0, SVG Export Plug-In . SVG Version: 6.00 Build 0)  -->
<!DOCTYPE svg PUBLIC "-//W3C//DTD SVG 1.1//EN" "http://www.w3.org/Graphics/SVG/1.1/DTD/svg11.dtd">
<svg version="1.1" id="Capa_1" xmlns="http://www.w3.org/2000/svg" xmlns:xlink="http://www.w3.org/1999/xlink" x="0px" y="0px"
	 viewBox="0 0 254.016 254.016" style="enable-background:new 0 0 254.016 254.016;" xml:space="preserve">
<g>
	<g>
		<path style="fill:#FDBD1D;" d="M41.692,101.264v93.182c3-0.399,6-3.068,6-6.329V94.912
			C44.692,95.309,41.692,98.003,41.692,101.264z"/>
		<g>
			<path style="fill:#FDBD1D;" d="M171.21,90.634c0.687,0.247,1.366,0.513,2.039,0.789C172.576,91.147,171.898,90.881,171.21,90.634
				z"/>
			<path style="fill:#FDBD1D;" d="M173.675,91.591c0.836,0.352,1.661,0.724,2.474,1.118
				C175.336,92.314,174.512,91.942,173.675,91.591z"/>
			<path style="fill:#FDBD1D;" d="M110.361,141.194c0.01,0.156,0.023,0.311,0.035,0.467
				C110.385,141.506,110.371,141.35,110.361,141.194z"/>
			<path style="fill:#FDBD1D;" d="M166.086,89.099c0.548,0.134,1.091,0.278,1.632,0.429
				C167.177,89.377,166.634,89.233,166.086,89.099z"/>
			<path style="fill:#FDBD1D;" d="M176.251,92.761c0.76,0.37,1.508,0.761,2.246,1.168C177.758,93.522,177.01,93.132,176.251,92.761z
				"/>
			<path style="fill:#FDBD1D;" d="M157.789,87.804c0.622,0.045,1.243,0.093,1.859,0.161
				C159.032,87.898,158.411,87.849,157.789,87.804z"/>
			<path style="fill:#FDBD1D;" d="M160.684,88.097c0.563,0.074,1.124,0.151,1.681,0.242
				C161.809,88.248,161.247,88.17,160.684,88.097z"/>
			<path style="fill:#FDBD1D;" d="M168.679,89.801c0.575,0.173,1.144,0.361,1.711,0.554
				C169.823,90.163,169.254,89.975,168.679,89.801z"/>
			<path style="fill:#FDBD1D;" d="M154.11,87.657c0.935,0,1.863,0.03,2.786,0.08C155.973,87.686,155.045,87.657,154.11,87.657z"/>
			<path style="fill:#FDBD1D;" d="M193.326,106.29c-1.143-1.397-2.36-2.731-3.643-3.998
				C190.966,103.559,192.183,104.892,193.326,106.29z"/>
			<path style="fill:#FDBD1D;" d="M187.772,100.502c0.552,0.492,1.091,0.997,1.621,1.513
				C188.863,101.499,188.324,100.994,187.772,100.502z"/>
			<path style="fill:#FDBD1D;" d="M185.764,98.806c0.508,0.408,1.008,0.828,1.5,1.255C186.771,99.634,186.272,99.214,185.764,98.806
				z"/>
			<path style="fill:#FDBD1D;" d="M179.056,94.251c0.58,0.33,1.156,0.667,1.722,1.019C180.212,94.918,179.636,94.581,179.056,94.251
				z"/>
			<path style="fill:#FDBD1D;" d="M181.435,95.692c0.526,0.339,1.047,0.685,1.56,1.042
				C182.482,96.376,181.961,96.031,181.435,95.692z"/>
			<path style="fill:#FDBD1D;" d="M183.655,97.203c0.506,0.365,1.004,0.738,1.495,1.12
				C184.659,97.941,184.161,97.568,183.655,97.203z"/>
			<path style="fill:#FDBD1D;" d="M163.428,88.53c0.544,0.102,1.085,0.211,1.624,0.33C164.514,88.741,163.973,88.632,163.428,88.53z
				"/>
			<path style="fill:#FDBD1D;" d="M103.893,144.888c0.073,0.563,0.151,1.124,0.243,1.68
				C104.044,146.011,103.967,145.45,103.893,144.888z"/>
			<path style="fill:#FDBD1D;" d="M112.533,167.2c-0.36-0.517-0.709-1.042-1.05-1.572
				C111.824,166.159,112.173,166.684,112.533,167.2z"/>
			<path style="fill:#FDBD1D;" d="M114.129,169.363c-0.387-0.497-0.765-1.001-1.133-1.512
				C113.364,168.362,113.742,168.865,114.129,169.363z"/>
			<path style="fill:#FDBD1D;" d="M103.601,141.992c0.045,0.622,0.093,1.243,0.16,1.858
				C103.694,143.235,103.646,142.614,103.601,141.992z"/>
			<path style="fill:#FDBD1D;" d="M115.873,171.482c-0.435-0.501-0.863-1.009-1.278-1.527
				C115.01,170.473,115.437,170.981,115.873,171.482z"/>
			<path style="fill:#FDBD1D;" d="M157.483,94.599c-0.165-0.013-0.33-0.027-0.495-0.038
				C157.154,94.573,157.318,94.587,157.483,94.599z"/>
			<path style="fill:#FDBD1D;" d="M103.453,138.314c0,0.935,0.03,1.863,0.08,2.786C103.483,140.177,103.453,139.249,103.453,138.314
				z"/>
			<path style="fill:#FDBD1D;" d="M193.332,106.298c-8.732-7.139-19.879-11.431-32.012-11.431c-0.363,0-0.721,0.02-1.083,0.027
				c-0.009-0.001-0.018-0.002-0.026-0.003c21.302,2.979,37.752,21.311,37.752,43.423c0,24.181-19.672,43.854-43.853,43.854
				c-22.107,0-40.435-16.445-43.419-37.742c-0.008,0.367-0.028,0.73-0.028,1.099c0,12.132,4.292,23.278,11.432,32.01
				c-1.403-1.147-2.742-2.369-4.015-3.658c9.191,9.309,21.946,15.091,36.03,15.091c27.933,0,50.656-22.723,50.656-50.653
				C204.766,126.179,200.474,115.03,193.332,106.298z"/>
			<path style="fill:#FDBD1D;" d="M117.839,173.623c-0.528-0.542-1.045-1.094-1.548-1.659
				C116.794,172.529,117.311,173.081,117.839,173.623z"/>
			<path style="fill:#FDBD1D;" d="M108.558,160.454c0.37,0.759,0.76,1.506,1.167,2.243
				C109.318,161.96,108.929,161.212,108.558,160.454z"/>
			<path style="fill:#FDBD1D;" d="M110.047,163.256c0.331,0.582,0.669,1.159,1.022,1.727
				C110.716,164.415,110.378,163.838,110.047,163.256z"/>
			<path style="fill:#FDBD1D;" d="M107.387,157.876c0.351,0.836,0.724,1.662,1.119,2.474
				C108.111,159.538,107.739,158.713,107.387,157.876z"/>
			<path style="fill:#FDBD1D;" d="M106.43,155.412c0.248,0.689,0.514,1.37,0.791,2.045
				C106.944,156.782,106.678,156.101,106.43,155.412z"/>
			<path style="fill:#FDBD1D;" d="M104.896,150.292c0.133,0.544,0.276,1.084,0.426,1.621
				C105.173,151.377,105.029,150.837,104.896,150.292z"/>
			<path style="fill:#FDBD1D;" d="M104.327,147.633c0.102,0.542,0.21,1.082,0.329,1.618
				C104.537,148.715,104.428,148.175,104.327,147.633z"/>
			<path style="fill:#FDBD1D;" d="M105.599,152.885c0.173,0.574,0.36,1.141,0.552,1.706
				C105.959,154.026,105.772,153.458,105.599,152.885z"/>
		</g>
		<g>
			<path style="fill:#58D2D4;" d="M187.372,38.84c0.723,0,1.43,0.061,2.129,0.151C188.802,38.901,188.095,38.84,187.372,38.84z"/>
			<path style="fill:#58D2D4;" d="M190.078,39.079c0.557,0.091,1.105,0.209,1.642,0.354
				C191.183,39.288,190.636,39.171,190.078,39.079z"/>
			<path style="fill:#58D2D4;" d="M192.146,39.543c0.658,0.197,1.299,0.433,1.92,0.706C193.444,39.976,192.804,39.74,192.146,39.543
				z"/>
			<path style="fill:#58D2D4;" d="M199.795,44.412c0.406,0.452,0.789,0.924,1.144,1.418
				C200.584,45.336,200.201,44.864,199.795,44.412z"/>
			<path style="fill:#58D2D4;" d="M201.092,46.034c0.4,0.575,0.763,1.176,1.09,1.799C201.855,47.209,201.492,46.608,201.092,46.034z
				"/>
			<path style="fill:#58D2D4;" d="M199.502,44.089c-0.94-0.993-1.996-1.871-3.152-2.611
				C197.505,42.219,198.563,43.096,199.502,44.089z"/>
			<path style="fill:#58D2D4;" d="M194.437,40.428c0.511,0.24,1.008,0.505,1.49,0.794C195.445,40.933,194.949,40.668,194.437,40.428
				z"/>
			<path style="fill:#58D2D4;" d="M19.755,212.292c-0.555-0.336-1.092-0.697-1.609-1.083
				C18.663,211.595,19.2,211.956,19.755,212.292z"/>
			<path style="fill:#58D2D4;" d="M14.076,207.145c-0.369-0.493-0.715-1.004-1.039-1.531
				C13.361,206.141,13.707,206.651,14.076,207.145z"/>
			<path style="fill:#58D2D4;" d="M223.986,63.714h-15.061c-1.455,0-2.838-0.745-3.795-1.838c-0.959-1.094-1.4-2.606-1.208-4.048
				c0.113-0.858,0.166-1.591,0.166-2.241c0-2.759-0.683-6.041-1.872-8.337c-2.29-1.18-4.884-2.536-7.633-2.536h-66.524
				c-9.217,0-16.714,8.168-16.714,17.386c0,0.656,0.052,1.691,0.165,2.542c0.193,1.442-0.248,3.577-1.205,4.671
				c-0.959,1.094-2.342,2.401-3.797,2.401H37.24c-10.993,0-19.548,7.917-19.548,18.909v111.828c0,3.64,0.746,8.3,2.457,11.241
				c2.95,1.727,5.782,2.329,9.44,2.329l194.823-1.471c10.993,0,20.28-8.316,20.28-19.309V83.414
				C244.692,72.421,234.979,63.714,223.986,63.714z M55.692,188.117c0,9.101-7.687,16.504-16.787,16.504
				c-9.1,0-14.646-7.69-14.646-16.791l-0.52-93.268c0-9.099,6.081-17.009,15.181-17.009c9.1,0,16.772,7.402,16.772,16.502V188.117z
				 M154.11,199.061c-33.498,0-60.752-27.252-60.752-60.748c0-33.499,27.254-60.752,60.752-60.752s60.75,27.252,60.75,60.752
				C214.861,171.81,187.608,199.061,154.11,199.061z M220.761,102.549c-9.021,0-16.361-7.339-16.361-16.362
				c0-9.021,7.34-16.361,16.361-16.361c9.021,0,16.361,7.34,16.361,16.361C237.122,95.21,229.782,102.549,220.761,102.549z"/>
			<path style="fill:#58D2D4;" d="M10.095,195.241c0,0.828,0.066,1.64,0.165,2.441C10.161,196.881,10.095,196.069,10.095,195.241z"
				/>
			<path style="fill:#58D2D4;" d="M14.403,207.581c0.977,1.235,2.095,2.348,3.332,3.321
				C16.499,209.929,15.38,208.815,14.403,207.581z"/>
			<path style="fill:#58D2D4;" d="M12.729,205.105c-0.774-1.351-1.392-2.8-1.835-4.325
				C11.336,202.306,11.955,203.754,12.729,205.105z"/>
			<path style="fill:#58D2D4;" d="M10.726,200.13c-0.146-0.574-0.265-1.158-0.36-1.751C10.461,198.973,10.58,199.556,10.726,200.13z
				"/>
		</g>
		<g>
			<path style="fill:#FDBD1D;" d="M157.218,104.708c0.188,0.017,0.377,0.031,0.564,0.052
				C157.594,104.74,157.406,104.726,157.218,104.708z"/>
			<path style="fill:#FDBD1D;" d="M166.905,107.086c0.18,0.074,0.362,0.145,0.541,0.222
				C167.267,107.232,167.085,107.161,166.905,107.086z"/>
			<path style="fill:#FDBD1D;" d="M164.122,106.068c0.026,0.008,0.052,0.018,0.078,0.026
				C164.173,106.086,164.148,106.076,164.122,106.068z"/>
			<path style="fill:#FDBD1D;" d="M160.676,105.203c0.189,0.037,0.376,0.081,0.564,0.122
				C161.051,105.284,160.865,105.241,160.676,105.203z"/>
			<path style="fill:#FDBD1D;" d="M169.956,108.52c0.186,0.099,0.368,0.203,0.551,0.306
				C170.324,108.723,170.142,108.619,169.956,108.52z"/>
			<path style="fill:#FDBD1D;" d="M180.073,116.764c0.084,0.101,0.163,0.208,0.246,0.31
				C180.235,116.972,180.157,116.866,180.073,116.764z"/>
			<path style="fill:#FDBD1D;" d="M178.248,114.757c-0.165-0.169-0.328-0.339-0.497-0.505
				C177.919,114.417,178.083,114.588,178.248,114.757z"/>
			<path style="fill:#FDBD1D;" d="M172.916,110.291c0.071,0.048,0.138,0.1,0.208,0.148
				C173.054,110.391,172.987,110.339,172.916,110.291z"/>
			<path style="fill:#FDBD1D;" d="M175.247,112.028c0.171,0.138,0.344,0.273,0.512,0.414
				C175.591,112.3,175.419,112.166,175.247,112.028z"/>
			<path style="fill:#FDBD1D;" d="M126.267,157.367c-0.068-0.099-0.139-0.195-0.206-0.295
				C126.128,157.172,126.199,157.268,126.267,157.367z"/>
			<path style="fill:#FDBD1D;" d="M132.905,164.546c-0.127-0.103-0.258-0.202-0.384-0.307
				C132.647,164.344,132.777,164.443,132.905,164.546z"/>
			<path style="fill:#FDBD1D;" d="M128.253,159.978c-0.151-0.181-0.297-0.367-0.445-0.55
				C127.957,159.611,128.101,159.797,128.253,159.978z"/>
			<path style="fill:#FDBD1D;" d="M130.037,161.94c0.176,0.18,0.357,0.354,0.538,0.53
				C130.395,162.294,130.214,162.12,130.037,161.94z"/>
			<path style="fill:#FDBD1D;" d="M181.214,118.271c-5.583-4.088-12.46-6.51-19.893-6.51c-18.616,0-33.76,15.146-33.76,33.763
				c0,7.435,2.424,14.312,6.512,19.897c5.612,4.159,12.531,6.652,20.037,6.652c18.614,0,33.758-15.145,33.758-33.759
				C187.869,130.805,185.375,123.885,181.214,118.271z"/>
			<path style="fill:#FDBD1D;" d="M123.112,151.658c-0.08-0.185-0.154-0.374-0.231-0.561
				C122.958,151.284,123.032,151.472,123.112,151.658z"/>
			<path style="fill:#FDBD1D;" d="M121.125,145.448c-0.041-0.191-0.085-0.38-0.123-0.572
				C121.04,145.068,121.084,145.257,121.125,145.448z"/>
			<path style="fill:#FDBD1D;" d="M121.9,148.42c-0.011-0.034-0.024-0.066-0.035-0.1C121.876,148.354,121.889,148.387,121.9,148.42z
				"/>
			<path style="fill:#FDBD1D;" d="M124.636,154.73c-0.108-0.194-0.219-0.387-0.324-0.583
				C124.418,154.343,124.528,154.535,124.636,154.73z"/>
			<path style="fill:#FDBD1D;" d="M120.56,141.987c-0.021-0.188-0.035-0.379-0.052-0.568
				C120.525,141.608,120.539,141.798,120.56,141.987z"/>
		</g>
		<path style="fill:#FDBD1D;" d="M49.451,52.714h25.241v-3.472c-3-0.722-5.889-1.282-9.333-1.282
			C57.278,47.96,51.25,50.714,49.451,52.714z"/>
		<path style="fill:#B74B00;" d="M154.11,199.061c33.498,0,60.75-27.252,60.75-60.747c0-33.499-27.252-60.752-60.75-60.752
			s-60.752,27.252-60.752,60.752C93.358,171.81,120.612,199.061,154.11,199.061z M154.11,87.656
			c27.933,0,50.656,22.725,50.656,50.658c0,27.93-22.724,50.653-50.656,50.653c-27.933,0-50.657-22.723-50.657-50.653
			C103.453,110.381,126.178,87.656,154.11,87.656z"/>
		<path style="fill:#B74B00;" d="M223.986,53.384h-9.892c-1.111-13.771-12.671-24.639-26.723-24.639h-66.524
			c-14.05,0-25.612,10.867-26.722,24.639H83.801v-6.339c0-9.301-11.241-16.317-26.146-16.317c-14.905,0-26.144,7.016-26.144,16.317
			v6.339h-1.482C13.471,53.384,0,66.855,0,83.413v111.828c0,16.558,13.471,30.029,30.029,30.029h193.957
			c16.558,0,30.029-13.471,30.029-30.029V83.413C254.016,66.855,240.544,53.384,223.986,53.384z M10.094,83.413
			c0-10.992,8.942-19.935,19.935-19.935h69.266c1.455,0,2.838-0.627,3.797-1.721c0.958-1.094,1.398-2.549,1.205-3.991
			c-0.113-0.851-0.165-1.552-0.165-2.208c0-9.219,7.498-16.719,16.714-16.719h66.524c9.217,0,16.716,7.5,16.716,16.719
			c0,0.65-0.054,1.353-0.166,2.211c-0.191,1.441,0.249,2.895,1.208,3.989c0.958,1.093,2.341,1.719,3.795,1.719h15.061
			c10.993,0,19.935,8.943,19.935,19.935v111.828c0,10.993-8.942,19.935-19.935,19.935H30.029c-10.993,0-19.935-8.942-19.935-19.935
			V83.413z M41.605,47.045c0-2.194,6.093-6.223,16.05-6.223c9.958,0,16.051,4.029,16.051,6.223v5.814H41.605V47.045z"/>
		<path style="fill:#B74B00;" d="M39.492,204.621c9.1,0,16.502-7.403,16.502-16.504V94.054c0-9.099-7.402-16.502-16.502-16.502
			s-16.505,7.402-16.505,16.502v94.063C22.987,197.218,30.391,204.621,39.492,204.621z M33.081,94.054
			c0-3.533,2.875-6.408,6.41-6.408c3.533,0,6.408,2.874,6.408,6.408v94.063c0,3.534-2.874,6.41-6.408,6.41
			c-3.535,0-6.41-2.876-6.41-6.41V94.054z"/>
		<path style="fill:#B74B00;" d="M154.11,182.168c24.181,0,43.853-19.673,43.853-43.854c0-24.184-19.672-43.857-43.853-43.857
			s-43.854,19.673-43.854,43.857C110.256,162.495,129.929,182.168,154.11,182.168z M154.11,104.551
			c18.614,0,33.758,15.146,33.758,33.763c0,18.614-15.144,33.759-33.758,33.759c-18.616,0-33.76-15.145-33.76-33.759
			C120.35,119.697,135.495,104.551,154.11,104.551z"/>
		<path style="fill:#B74B00;" d="M220.761,102.549c9.021,0,16.361-7.339,16.361-16.362c0-9.021-7.34-16.361-16.361-16.361
			c-9.021,0-16.361,7.34-16.361,16.361C204.4,95.21,211.74,102.549,220.761,102.549z M220.761,79.921
			c3.456,0,6.267,2.811,6.267,6.267c0,3.456-2.811,6.267-6.267,6.267c-3.456,0-6.267-2.812-6.267-6.267
			C214.495,82.732,217.305,79.921,220.761,79.921z"/>
	</g>
</g>
<g>
</g>
<g>
</g>
<g>
</g>
<g>
</g>
<g>
</g>
<g>
</g>
<g>
</g>
<g>
</g>
<g>
</g>
<g>
</g>
<g>
</g>
<g>
</g>
<g>
</g>
<g>
</g>
<g>
</g>
</svg>
